# xmcd
#
# Track frame offsets:
#	150
#	16377
#	32810
#	47153
#	65404
#	81671
#	99605
#	119239
#	134326
#	151668
#	172315
#
# Disc length: 2538 seconds
#
# Revision: 1
# Processed by: cddbd v1.4b42PL1 Copyright (c) Steve Scherf et al.
# Submitted via: audiograbber 1.80
#
DISCID=9e09e80b
DTITLE=Gabrielle - Rise
DYEAR=1900
DGENRE=
TTITLE0=Sunshine
TTITLE1=Rise
TTITLE2=When a Woman
TTITLE3=Tell Me What You Dream
TTITLE4=5 O' Clock
TTITLE5=Should I Stay
TTITLE6=Over You
TTITLE7=Falling
TTITLE8=If You Love Me
TTITLE9=Independence Day
TTITLE10=Gonna Get Better
EXTD=
EXTT0=
EXTT1=
EXTT2=
EXTT3=
EXTT4=
EXTT5=
EXTT6=
EXTT7=
EXTT8=
EXTT9=
EXTT10=
PLAYORDER=
